<?xml version="1.0" encoding="utf-8"?>
<svg version="1.1" id="Layer_1" xmlns="http://www.w3.org/2000/svg" xmlns:xlink="http://www.w3.org/1999/xlink" x="0px" y="0px"
	 viewBox="0 0 1024 1024" style="enable-background:new 0 0 1024 1024;" xml:space="preserve">
<style type="text/css">
	.st0{fill:#ED2991;}
</style>
<g>
	<path class="st0" d="M193,1.1c-25.8,4.2-50.8,17.5-72.7,38.6c-19.7,18.9-30.8,34.7-44.7,62.8C43.3,168.3,19.5,247.4,8.3,326.2
		C1.6,373-0.7,411.4,0.2,463.1c0.6,38.9,1.3,45.4,5.7,58.1c10.8,30.9,40.7,56.4,74.2,63.3c12,2.5,32.2,1.5,44.6-2.2
		c27.7-8.2,49.5-25.9,62.7-50.9c8.2-15.5,12.7-35.7,11.4-51c-0.3-3.2-2.1-22.5-4-42.8c-16.4-170.4-17-248.1-2.6-296.7
		c5.2-17.6,10.4-23.1,21.7-23.1c10,0,31.1,8.9,48.3,20.4c9.3,6.2,28.8,21.7,38.6,30.5l5.5,5l-7.9,12.1c-23.4,36-36,68.5-43.2,111.7
		c-1.6,9.7-1.9,22.2-2.4,105l-0.6,94l-2.4,4.7c-1.3,2.6-5.9,9.2-10.2,14.6c-18.8,23.7-38.5,57.1-48.3,82
		c-13,32.9-18.7,60.8-19.8,95.6c-0.9,30.4,1.8,54.5,9.7,85.7c25.2,100,90.2,173.7,191.9,217.2c35.8,15.4,77,25.2,110.6,26.5l7.8,0.3
		l0.3-177.7c0.2-168.7,0.2-177.8-1.6-179.4c-1-0.9-9.8-3.9-19.5-6.5c-35.4-9.7-48.9-15.9-62.7-28.6c-10.1-9.3-17.3-24.2-17.3-35.5
		c0-21.3,15.9-41,44.4-55.2c23.9-11.9,50.5-16.8,84.7-15.6c27.2,0.9,45.4,4.9,65.1,14.3c27.3,13,43.2,29.9,46.4,49.3
		c5.7,34.1-33.9,66.6-90.5,74.5c-3.3,0.5-6,1.6-7.6,3.2l-2.5,2.5v177.9V1024l9.1-0.7c59.2-4.6,117.9-24.6,165.4-56.2
		c83.9-55.8,132.1-131.4,143.6-225.4c7.3-59.2-2-115.1-27.7-166.6c-10.9-21.8-21.9-39-38.5-59.9c-4.1-5.2-8.5-11.5-9.8-14.1
		l-2.4-4.7l-0.6-94.6c-0.5-83.5-0.8-95.9-2.4-105.5c-7-41.7-20.6-76.4-44.2-112.6c-4.2-6.5-7.7-12-7.7-12.2c0-1.6,53-37.9,65.9-45.3
		c18.4-10.4,33.5-11.5,41.5-3c3.2,3.4,7.1,11.9,9,19.5c2.9,12,7.1,48,7.8,67.9c1.2,33.5-3.1,108.8-14.3,246.6
		c-1.5,18.6-1.8,27-1,34.6c4.3,45.9,37.2,83.7,80.4,92.4c12.7,2.6,32.8,1.7,45.3-2.1c22.9-6.9,42.2-21.1,55.1-40.7
		c13.8-20.9,18.7-43.8,18.7-86.8c0-70-10.2-146.6-29.8-225.2C979.3,170,960.6,122.7,937,84.2c-11.2-18.2-18.8-28.3-31-41
		c-21.6-22.6-46.9-36.7-74.3-41.6c-12.2-2.2-34.9-1.7-48.8,1c-42.6,8.3-90,35.4-136.2,77.6c-6.6,6-13.5,11.8-15.4,12.7
		c-5.2,2.7-10.1,2.1-20.9-2.5c-33.1-14.1-57.3-19.6-90.7-20.5c-34.4-1-56,2.8-98.4,17.1c-14.5,4.9-26.9,8.8-27.4,8.6
		c-0.5-0.2-6.5-5.4-13.3-11.5c-15.4-13.9-26.1-22.8-39-32.5C309.4,27.4,272.2,9.2,241.3,2.7C228.1-0.1,205.2-0.9,193,1.1L193,1.1z
		 M443,291.5c10.6,3.7,16.3,7.4,25.2,16.3c26.3,26.5,26.2,67.8-0.3,94.2c-12.7,12.6-27.1,18.6-44.6,18.6c-17.3,0-31.4-6-44.2-18.7
		c-15.7-15.6-22.5-37.7-18.4-59.6c5.1-26.9,26.5-48.7,52.2-53.3C421.2,287.6,434.9,288.7,443,291.5L443,291.5z M617.6,291.1
		c25.7,8,44,32.1,45.6,60.1c1.1,19.5-5.6,37.1-19.3,50.7c-13.1,13-27,18.8-44.6,18.8s-31.5-5.8-44.5-18.8
		c-21.1-21-25.7-51.7-11.7-78.7c8.1-15.7,26.2-29.8,43.2-33.6C594.8,287.7,608.5,288.3,617.6,291.1L617.6,291.1z M302.7,661.3
		c4.7,3.1,9.6,11.8,9.6,16.9c0,9.8-6.1,18.4-14.9,21c-8.5,2.5-15.5,0.5-21.4-6.2c-9.5-10.8-5.3-28.3,8.3-34.1
		C288.8,657.1,298.1,658.2,302.7,661.3L302.7,661.3z M750.4,661.7c10.7,7.6,12.1,23.6,2.9,32.8c-8.8,8.8-23.2,7.7-30.6-2.3
		c-6.6-8.9-6.4-18.8,0.6-26.6C730.5,657.4,741.9,655.7,750.4,661.7L750.4,661.7z M365.4,726.2c6.1,4,10,12.5,9.3,20.2
		c-1.2,13.9-15.2,22.8-27.7,17.6c-13.4-5.6-17.5-22.2-8.3-33.4C345.4,722.4,356.8,720.5,365.4,726.2L365.4,726.2z M683.8,724.7
		c20.1,9.2,15.4,39.2-6.5,40.7c-12.4,0.8-21.6-8.1-21.6-21c0-7.1,1.7-11.2,6.3-15.6C668.3,722.8,676.4,721.3,683.8,724.7
		L683.8,724.7z M296.7,794.4c7.4,3.8,12.1,13.5,10.9,22.4c-2.5,18.4-27.4,24.2-37.2,8.7c-6-9.4-5-19.4,2.7-27.1
		C279.6,791.9,288.9,790.4,296.7,794.4L296.7,794.4z M748.8,793.3c13.8,4.1,19.1,21.9,10,33.7c-8.4,11-27.6,9.2-34-3.2
		c-7.2-14,1.7-30.4,17.5-32C743,791.8,745.9,792.4,748.8,793.3L748.8,793.3z"/>
</g>
</svg>
